/* XPM */
static char *satc64[] = {
/* columns rows colors chars-per-pixel */
"64 64 91 1 ",
"  c #030206",
". c #050409",
"X c #08070B",
"o c #0A0A0D",
"O c #0E0E11",
"+ c #100F12",
"@ c #121213",
"# c #161619",
"$ c #1B1B1E",
"% c #1D1D20",
"& c #1F2021",
"* c #232325",
"= c #262629",
"- c #28272B",
"; c #272829",
": c #2A2A2C",
"> c #2E2E31",
", c #302F32",
"< c #323235",
"1 c #363639",
"2 c #3A3B3C",
"3 c #3F3F41",
"4 c #403F42",
"5 c #3F4041",
"6 c #424244",
"7 c #464649",
"8 c #4B4B4D",
"9 c #4E4F50",
"0 c #4F5050",
"q c #535454",
"w c #565759",
"e c #5B5C5D",
"r c #5E5E60",
"t c #605F61",
"y c #5F6060",
"u c #626263",
"i c #676967",
"p c #656768",
"a c #676868",
"s c #6B6C6D",
"d c #6E6E70",
"f c #706F71",
"g c #6F7071",
"h c #727373",
"j c #777877",
"k c #757678",
"l c #777979",
"z c #7B7B7C",
"x c #7F807F",
"c c #7E7F80",
"v c #7F8180",
"b c #838484",
"n c #878788",
"m c #888789",
"M c #878989",
"N c #8B8C8D",
"B c #8E908F",
"V c #8F8E91",
"C c #8F9190",
"Z c #929393",
"A c #969897",
"S c #9B9D9C",
"D c #9DA09E",
"F c #9FA1A0",
"G c #A3A5A4",
"H c #A6A9A7",
"J c #A6A9A8",
"K c #ABAEAC",
"L c #AEB0AF",
"P c #B2B5B3",
"I c #B6B9B7",
"U c #BABDBB",
"Y c #BFC1BF",
"T c #BFC2C0",
"R c #C1C4C2",
"E c #C5C8C6",
"W c #CBCECC",
"Q c #CED1CE",
"! c #CFD2D0",
"~ c #D2D5D3",
"^ c #D6D9D6",
"/ c #DBDEDB",
"( c #DEE2DE",
") c #E2E6E3",
"_ c #E6E9E6",
"` c #EAEDEA",
"' c #EEF1EE",
"] c #F2F6F2",
"[ c #FBFEFB",
"{ c #F4F8F5",
"} c None",
/* pixels */
"}}}}}}}}}}}}}}}}}}}}}}}}}}VzdrrttrrdzV}}}}}}}}}}}}}}}}}}}}}}}}}}",
"}}}}}}}}}}}}}}}}}}}}}}Vs8<%Oo.    .o+%,9sV}}}}}}}}}}}}}}}}}}}}}}",
"}}}}}}}}}}}}}}}}}}}}d3%.                .%3d}}}}}}}}}}}}}}}}}}}}",
"}}}}}}}}}}}}}}}}}Zr-o     .   .            X:rZ}}}}}}}}}}}}}}}}}",
"}}}}}}}}}}}}}}}}u=.        . . . . .   .     .=r}}}}}}}}}}}}}}}}",
"}}}}}}}}}}}}}}z<.   ..    . .  .. .     .  .   .<z}}}}}}}}}}}}}}",
"}}}}}}}}}}}}}e#    .   . ... .     ....  . .   . @e}}}}}}}}}}}}}",
"}}}}}}}}}}}Z4.   .  ......  ........  ... .     . .3Z}}}}}}}}}}}",
"}}}}}}}}}}m,  . ..  .. ......  X ............       >m}}}}}}}}}}",
"}}}}}}}}}b=    .. ... .......o  ................ .   -b}}}}}}}}}",
"}}}}}}}}m=   . . ............. X.................     *m}}}}}}}}",
"}}}}}}}Z<     . ...... ......XX .XX..............      >Z}}}}}}}",
"}}}}}}}6    . ........XX.XX.XX XXXXX............. .     6}}}}}}}",
"}}}}}}e.  .. ........X..oX.XXXXXX.XXXXX..........  ..   .e}}}}}}",
"}}}}}z# ... .. .X..XX.XXX.XXXXXXXXXXXXXXX..X..... .. .   @z}}}}}",
"}}}}}<  .  .......XX.XX.XXXXXoXXXXXXX.XX..XX.XX.... ..    <}}}}}",
"}}}}u....... .....XXXX.XoXXoXooooXooXooXXXXXX.... .... .  .u}}}}",
"}}}Z* . .. .. ...X.XXXXXXXoXXooXooXXoXXXX.XX..X....OX.. .  =Z}}}",
"}}}e.   ....#,>+.XXXXoXXoo@*ooooooooXXoX.3yOXXX...%Gd  .    r}}}",
"}}}:  ....@dW_)Z#.XXXoXooXgH@XooXooooooXXMT@XX.X. 1~p .  .  =}}}",
"}}sX .. .OZ`KcS(>.XXXXXoooGKOoOooOooXXXXoFLOX.X...X=+... .  os}}",
"}}4 . .. 3_hX.%c#XXO%Oooo#Ybooo*&oooO1%XOLAXX.XX.X. ..... .  3}}",
"}V%. ... 8_8 .XXX.&S!dooX*^yO*eWT1oXw/7X@IvXO&oXX.>7.... ..  $N}",
"}s. ..  .%W!r%.XX#KTII@%sD'WR~'U(!NlWT&X@Uh@BW< .OJF.....  . .s}",
"}9  .. ...7W]Qh#.dW>lGo<(['LBRQ;s(TQ'yXX9)wl)`q.X&~m...9% .   9}",
"}<   ......%dT]c%TcOPM.;Y_Y#&QhoyP&&YDo5W`z!pTd +C[k .7K$     >}",
"V%  .........%IU5~<7'L7LLLDo0^:@KCooi(gTF!!C@PZ=AT)k >Tu   .. %N",
"cO  ........ow(vw!0TH_'U1Uvoi(0b(5Oo&Q{A5)~:XM'(T3TG7EAO  .   Oc",
"dX . ....9nhK`L%5)_A&ei&&Wso1^)/iOO@y(J#7]voX>Av&.n{'K%  ..   Xf",
"r.. .....d`'~c%X+py#oooo&WCO@8i2@O@N'K&X9^1.oooXXX&Mc% ... .  .r",
"r  ......+33%XXXoXXoooo@Oii@@oOOOO&PD;Oo%5OoooXXXXXX..... .    e",
"t  . .......XXXoooooOoOooOOOO@@O@@O&@OoOoooooXoXXXX.... .. .   r",
"r   ....X.XXXXooooOooOOoOOOO@OO@@OOOOOOOooOoooo.oo.XX..X....   y",
"r .. .....XXXXXXooooOooOoOO@OOO@OoOOOOOoOoooooooX.XX.......    e",
"r.. ....XX.XoXXoooOooOo&2&OO@@OO>5OOOOOOooOoooo.XXX..X....  . .r",
"do  ......XXXXoXoooooo2GYgoOOOOOyxOOoOOooOoooooooX.X.... ..  ..d",
"cO.......XX.XXXXooooo2H0xgOOoo@O@#OOOOooOooooXXo..XX .....    Oz",
"V%  ....X..XXXXooooo@Dqo1&O@h0oo&@oO;O@@ooooooo.XoX. X.... .  %N",
"}>  ......X.XXoXoooo0BOoOoOiDIvgC&o#x<AiooOOoXXXXX.XX... .    <}",
"}9  ......X.XXXXoXoob0oOo@xD$lMvK#o1CxMA@oe;XXoo.XX.... .     8}",
"}d. .. .....XXXX ooOZ<ooOd!rov>:A@#AYM&B#qxoXXo..X...... ..  .s}",
"}V%  ........XXXoooOD; #cvVyyv@&D1xxY2OBDM$XoX.XXX... . .    %N}",
"}}6  . .....XX.XXoXoxBiDcO9PZ-oOMYi#1oo>y$XoXXXX...... .     3}}",
"}}dX . .......XX oo #gx5OXO%#Xoo&,OOXooXXXoXXXX.o...... . . .s}}",
"}}}>  .. ....XX..o.o. .ooXooXXoooooooooXoo.o...X.... ...    :}}}",
"}}}r .. .......oo.ooXoooXoooo+oXooooooXoXXoo.oX.......     .e}}}",
"}}}Z=  ......... oX.Xo.XooXXoXXoooooXXXXXoX ......... .    *Z}}}",
"}}}}t. . ...... X..XX.XoXXoooXoXoooXXoXXXX oo .o..... ..  .u}}}}",
"}}}}}1  . .........o.Xoo.oX.XXXXXXXXX.XXo.X..........   . <}}}}}",
"}}}}}z@  . . .......o...XX.oXXXXXXXXXXXX.X.... .....  .  @z}}}}}",
"}}}}}}e.  . ...........X..XX.XX.XX.XXX.......... ...    .e}}}}}}",
"}}}}}}}3 . . .........X.XX.XXX.XXXXX........... ..      3}}}}}}}",
"}}}}}}}Z> .  ...........X..XX.XX..X.....X........  .   >Z}}}}}}}",
"}}}}}}}}n-  .   .  .......X..X...X.......... ..       =m}}}}}}}}",
"}}}}}}}}}b-   .  .. ........X..X............ .   .   =c}}}}}}}}}",
"}}}}}}}}}}n>  . . ...  ................ .. .. ..    >m}}}}}}}}}}",
"}}}}}}}}}}}Z3.    ... .. .. ...... .. ...  .      .3Z}}}}}}}}}}}",
"}}}}}}}}}}}}}r#     ... . ...  ..... .. . .      @e}}}}}}}}}}}}}",
"}}}}}}}}}}}}}}l<.     . . .  ...... ..    . .  .<z}}}}}}}}}}}}}}",
"}}}}}}}}}}}}}}}}u*.   .     .   .. .   ..     *t}}}}}}}}}}}}}}}}",
"}}}}}}}}}}}}}}}}}Ze-.   .   .  .   .  .    X-eZ}}}}}}}}}}}}}}}}}",
"}}}}}}}}}}}}}}}}}}}}s3$o         .      X$2d}}}}}}}}}}}}}}}}}}}}",
"}}}}}}}}}}}}}}}}}}}}}}ms9<%Oo.    .XO$>8sN}}}}}}}}}}}}}}}}}}}}}}",
"}}}}}}}}}}}}}}}}}}}}}}}}}}VzseerrerdzV}}}}}}}}}}}}}}}}}}}}}}}}}}"
};
