/* XPM */
static char *satc64[] = {
/* columns rows colors chars-per-pixel */
"64 64 186 2 ",
"   c #0D0E0D",
".  c #0E100F",
"X  c #0F1110",
"o  c #121413",
"O  c #191616",
"+  c #161817",
"@  c #141718",
"#  c #1B1718",
"$  c #171918",
"%  c #1B1C1B",
"&  c #21161B",
"*  c #2B171C",
"=  c #221C1D",
"-  c #2A1B1D",
";  c #2A1617",
":  c #32191D",
">  c #3A1C1F",
",  c #1E201F",
"<  c #21201F",
"1  c #241F21",
"2  c #2C1D22",
"3  c #331C23",
"4  c #3B1D23",
"5  c #371F29",
"6  c #3A1E2A",
"7  c #1F2120",
"8  c #232423",
"9  c #2B2325",
"0  c #262827",
"q  c #2C2529",
"w  c #272928",
"e  c #2B2C2B",
"r  c #332325",
"t  c #3C2125",
"y  c #33252A",
"u  c #3C242C",
"i  c #322B2E",
"p  c #3C282A",
"a  c #2E302F",
"s  c #352E31",
"d  c #3B2C32",
"f  c #2F3130",
"g  c #323433",
"h  c #393435",
"j  c #363837",
"k  c #393837",
"l  c #3E3338",
"z  c #373938",
"x  c #3A3C3B",
"c  c #461A1E",
"v  c #441D23",
"b  c #4D1D23",
"n  c #491F28",
"m  c #411C28",
"M  c #531E24",
"N  c #442225",
"B  c #482026",
"V  c #43222B",
"C  c #4B242B",
"Z  c #432B2E",
"A  c #4A2A2D",
"S  c #552125",
"D  c #54252B",
"F  c #5C252A",
"G  c #54282D",
"H  c #5B2A2D",
"J  c #5E2126",
"K  c #442634",
"L  c #432B35",
"P  c #4D2C33",
"I  c #442E38",
"U  c #4B2B3A",
"Y  c #4A2333",
"T  c #532E32",
"R  c #542533",
"E  c #433237",
"W  c #43363A",
"Q  c #49353C",
"!  c #443C3C",
"~  c #4C3136",
"^  c #5C3235",
"/  c #5B3B3E",
"(  c #58363C",
")  c #642A2E",
"_  c #67262A",
"`  c #652A31",
"'  c #3E403F",
"]  c #4E3440",
"[  c #563B47",
"{  c #5C3A47",
"}  c #573C48",
"|  c #593948",
" . c #543341",
".. c #3F4140",
"X. c #424443",
"o. c #4B4546",
"O. c #464847",
"+. c #484847",
"@. c #474948",
"#. c #4A4C4B",
"$. c #504A4D",
"%. c #4E514F",
"&. c #594951",
"*. c #4F5150",
"=. c #535554",
"-. c #5D5255",
";. c #565957",
":. c #575858",
">. c #5B5D5C",
",. c #5C5957",
"<. c #644C4E",
"1. c #774749",
"2. c #6A4E55",
"3. c #744A57",
"4. c #615D5E",
"5. c #645459",
"6. c #79565B",
"7. c #5D605E",
"8. c #675D61",
"9. c #5F6260",
"0. c #636564",
"q. c #666867",
"w. c #666A68",
"e. c #6B6C6B",
"r. c #7B636A",
"t. c #726A6C",
"y. c #766264",
"u. c #6E716F",
"i. c #6F7170",
"p. c #727473",
"a. c #7C7476",
"s. c #747976",
"d. c #777A78",
"f. c #7B7D7C",
"g. c #84696A",
"h. c #836F77",
"j. c #867678",
"k. c #827D7E",
"l. c #867375",
"z. c #9D7779",
"x. c #7D817E",
"c. c #887E82",
"v. c #957D83",
"b. c #838583",
"n. c #858987",
"m. c #878B88",
"M. c #8B8B8B",
"N. c #938486",
"B. c #9A8586",
"V. c #978A8D",
"C. c #8D918F",
"Z. c #95918F",
"A. c #948F90",
"S. c #8F9391",
"D. c #939493",
"F. c #9D9395",
"G. c #979897",
"H. c #9A9C9B",
"J. c #999896",
"K. c #AE8A8D",
"L. c #A58E95",
"P. c #A29D9C",
"I. c #9FA09F",
"U. c #9FA3A0",
"Y. c #A4A5A4",
"T. c #A6AAA7",
"R. c #A6ACA9",
"E. c #ABADAC",
"W. c #B4ACAC",
"Q. c #ADB1AE",
"!. c #AFB2B1",
"~. c #B3B4B3",
"^. c #B5B8B6",
"/. c #B7BCB8",
"(. c #BBBCBB",
"). c #BDC0BE",
"_. c #C3C3C3",
"`. c #C7CDC9",
"'. c #CBCCCB",
"]. c #C7C6C5",
"[. c #CFD0CF",
"{. c #CED4D0",
"}. c #D4D5D4",
"|. c #DADADA",
" X c #D2D8D4",
".X c None",
/* pixels */
".X.X.X.X.X.X.X.X.X.X.X.X.X.X.X.X.X.X.X.X.X.X.X.X.X.X'.).(.!.E.!.!.Y.R.^._.}..X.X.X.X.X.X.X.X.X.X.X.X.X.X.X.X.X.X.X.X.X.X.X.X.X.X",
".X.X.X.X.X.X.X.X.X.X.X.X.X.X.X.X.X.X.X.X.X.X{.^.D.x.8.+.X.@.X.X.X.s x X.o.0.n.Y.).|..X.X.X.X.X.X.X.X.X.X.X.X.X.X.X.X.X.X.X.X.X.X",
".X.X.X.X.X.X.X.X.X.X.X.X.X.X.X.X.X.X.X.X^.C.q.] g ' ' x e ......g h ..' ' e x ..*.8.D._..X.X.X.X.X.X.X.X.X.X.X.X.X.X.X.X.X.X.X.X",
".X.X.X.X.X.X.X.X.X.X.X.X.X.X.X.X.X[.T.w.z a e e ..' ' ..g e f f e ..' ' ' g w f a w ' *.x.^.|..X.X.X.X.X.X.X.X.X.X.X.X.X.X.X.X.X",
".X.X.X.X.X.X.X.X.X.X.X.X.X.X.X.XE.e.O.a h x x a z ......f h z z e x ..' ' s g x z e x x x @.i.^..X.X.X.X.X.X.X.X.X.X.X.X.X.X.X.X",
".X.X.X.X.X.X.X.X.X.X.X.X.X.X/.p...j j a ' x ..j e x x j f ' ' ' z e z z g f ' ' ' z e x x j e #.M.[..X.X.X.X.X.X.X.X.X.X.X.X.X.X",
".X.X.X.X.X.X.X.X.X.X.X.X.XH.;.0 a a w j ' x ..x e e f w g ' x x x e a f e g ' x ' x w a f q g ' ' 0.~..X.X.X.X.X.X.X.X.X.X.X.X.X",
".X.X.X.X.X.X.X.X.X.X.X'.n.X.g g ' x x e x x x g f ' x z e x ' ' g f x ' z e x x x g f x x j e x x x X.D.|..X.X.X.X.X.X.X.X.X.X.X",
".X.X.X.X.X.X.X.X.X.X(.q.g e e x x x x a e s f e x x x x f e g e e x x x x f e f f w x x x x a e f a w x n.}..X.X.X.X.X.X.X.X.X.X",
".X.X.X.X.X.X.X.X.X(.>.e g g e k x x x a a g g w j x x x e e j g w z x x x f a g g e z x x x e a g g e z x f.}..X.X.X.X.X.X.X.X.X",
".X.X.X.X.X.X.X.X).0.e x x x g e z x j e x x x f e x z j e x x x f e z z g e x x x s e x x j w x x x s e k j d.[..X.X.X.X.X.X.X.X",
".X.X.X.X.X.X.X_.0.8 s x k j j 0 e e 0 a x z z z 8 e e 0 g x z z z 0 e e 8 f x x z z 0 w e 8 f x z z j 0 e e 0 f.|..X.X.X.X.X.X.X",
".X.X.X.X.X.X.Xx.j g e j z x g e z j g e z z j g e j z g e z z x g e z j g w z z z g e j j f w x x z g e j j g e G..X.X.X.X.X.X.X",
".X.X.X.X.X.XG.x j j e e g f w g z j j e e g f e j j j j e e g g e j z z z e a f f w j j j z w e g f 0 j j j j 0 x Q..X.X.X.X.X.X",
".X.X.X.X.XE.#.g j j a 0 e e 0 g j g z e 0 e e 0 g j j j f e f s q j j z j a q e e 8 j g j j e q e e 8 j j g j e 8 :.'..X.X.X.X.X",
".X.X.X.X.X0.w j g g w g j j e e j j g w j j z e e j j g s z j z s g g g g e g g j e e j g g w j g g e e j j g 0 j g n..X.X.X.X.X",
".X.X.X.XG.x 8 0 0 8 e g g j f 8 w w 8 e j g j g i i d p h j g g g d s s s h f j g h 8 0 e 8 e g x g g 8 w w 8 e g g X.^..X.X.X.X",
".X.X.X_.>.e e e g z *.i.e.x.m.X.f g e 0 g g g g i j j h d g g g s L x j s s g j g e 0 g g e 0 O.n...e 0 g f e w g g g i.}..X.X.X",
".X.X.XC.g 0 e @.i.d.q.=.X.*.e.@.g g f e e g f d h g f g d d h g l l j f f d s s f e g g g f 8 X.^.@.0 a g g g 8 e g f g E..X.X.X",
".X.X.X=.8 8 9.m.7.j 0 7 0 8 , f f g g e i s d L g g f g d U I U U s f f f s L h d s g f f g 0 f ~.+., f f f f w 8 e 0 % s..X.X.X",
".X.XH.z e #.H.' a a 8 f f g 0 e g a a i g g f d s f f a G E f a l d f f a L h s f i s f s e 0 j U.*.7 w f f f 8 w.0.f 8 x (..X.X",
".X.Xi.e e p./.z 8 , 0 e e e e % q e e s i a a i K d d -.j.g a a i K d d K L a a e s i e e 0 e j U.%.e 7 w w 8 g 9.z a e 1 m..X.X",
".X^.@.a a *.{.).p.u.0.9.9.%.O.e e e s s e e e e P I d Z.T.a a a s U I l L d e f f e d s i 0 q g Y.*.e 7 w w 8 8 e a e e 1 >.}..X",
".XD.f e e 0 ;.I.^.n.E.`.`.`. X~.w.a e u h X.X.E L a f n.F.h ' g Y L g X.#.] a e e u I #.=.x 0 e H.*.f x x f e 8 ..g e 8 0 ..(..X",
".Xe.% 8 7 , e e g e f g z O.p./.].*.e >.A.h.B.F.#.e 0.).].B.F.{ ` ,.d.w.i.Y.r.P C | e.b.H.q.0 0 U.n.H.R.).i.w ..!.' , , e e G..X",
".X=.0 e e 7 0 e w e 8 w w 0 % #. Xf.w &.$.a i k.b.e a n.L.! k i y.G.' 0 e y.'.&.h Y.p.x ' a 0 e C.e.f j d.).g j R.' w 7 0 w d..X",
"E...e e e 0 7 8 8 8 8 e w e 0 h `.c.q K #.7.i.Q.Y.i q k.M.e w f E.6.q i N ^ ~.7.e D./.E.).H.! a I.#.7 $ *.Q.w f R...w w , 7 :.}.",
"H.f w 0 w w % 8 8 % 8 w e q 8 o.}.0.U c.9.' z s.W.~ G N.m.< 0 ' (.3.K T ) ~ R.*.0 f | [ -.'.7.e U.#.0 % =.Q.8 a U.x w w , 1 ..].",
"D.8 8 #.#., 8 w w 0 % 0 w 0 8 e.^.f 7./.j 0 g n.~.e 0 C.E.! 0.j Q.F.g e a g.Z.e #.B.~ 0 #.Y.! e Q.;., 7 0.!.w f ^.X.0 7 8 0 x ^.",
"b.8 O b.m.% 8 0 0 0 7 % 7 % s E.w.7 x Z.B.r.r.K.b.e 8 7.W.z.6.A 1.S.D.p.e.t. .u / L.n.q.p.@.9 i m.' % 7 9.b.w x d.e % % 0 8 a E.",
"f.% 8 X.T.>.e 8 8 8 % 7 8 j f.p.w 0 8 u ( E i H r 8 8 0 T ^ Z Z F r g j e u L y p T W g w 8 0 i e 8 , 7 0 0 0 , 0 8 8 % 8 8 w T.",
"f.% 0 8 ..p.x.0.#...X.=.p.b.;.9 8 8 9 K 8 8 8 r C 9 8 r H e w w p S 8 9 9 G 0 8 7 r V 8 0 8 q 0 8 0 7 $ 8 7 , , 8 0 8 , % 7 8 Y.",
"s.% 8 8 7 8 e O.7.7.q.7.#.a < r u C F u 7 7 0 7 C H G ) N $ % % , J H G G p 8 8 8 8 V Y V u q 8 7 8 8 + , , + , 8 , , 8 + % , Y.",
"f.+ , 8 8 % , 8 < , O < , < 9 p 8 8 9 B 0 7 7 2 L 0 < r b % $ o - S 8 0 9 V 8 7 7 9 C 8 8 8 2 8 8 7 % % , 8 , + , 8 8 , , 8 0 Y.",
"d.% % % % + < 7 < < < - , , < r 8 < 7 5 V r 3 K 0 8 , , v c : : S r < < 7 t B y o.K 9 8 7 7 1 1 % % % 7 ' a , + $ % % $ 8 , 0 Y.",
"M.8 % % , + , < , , - r < < N < 7 , 8 r H V u C 8 % < e t F N C ) < , , 7 4 G W P.( 1 7 , , 1 8 1 , + % e.X., % , , % + % , a ~.",
"G.0 1 , , % + , , 7.O., , ' X.= % %.X.V 8 , % r v % e a.H 8 % f g.B % , = C 8 w p.y 4 % , % e e , , % o e.' % $ 7 7 7 $ + % z ).",
"Y.j % % % , o $ + u.s.% $ 7.n.< 9 t.} 3 % % , % M D P v.Z % % j p.D C N F t % 8 p.e m 5 r - 4.=.% % % o :.f o % , % % % o O #.'.",
".XX.$ % % $ % , % ..n., , 0.I.g 0 0.q 3 % % % 1 N 2 e k.K % % a t.C 9 = 3 v % 8 b.s 6 8 = 8 k.x.X.8 O.:.m.z $ @ % % % % % % w..X",
".X>.o % $ + % % % 8 n.f 8 %.7.O.w #.% 2 d k e 6 l j O.e.6 3 j #.g.r % % % v 4 8 b.L 1 % % % q.>.8 *.' w e.z $ @ O $ + O % % m..X",
".Xx.% $ % o % % % + q.=.z ..z u...x $ =.5.<.c.{ b.:.=.d.u 6.,.t.j.% % % $ 2 D u N.U % % % + 7.=.0 x.e + s.X.0 % o $ $ o % w E..X",
".XY.f $ % o o $ $ + z s.;.f , x.0.e e c.1 o i.&.a.7 7 p.2.0.o e h.3 $ $ % n 1 % s.y # @ $ o #.p.x %.7.X.7.f =.a % $ $ o X @.'..X",
".X.X;.O $ $ X o o o , C.d., @ x.C.O q n...g 0.f a.u u c.2.f.j @.f.b v > v 4 + 0 C.;.W x ' x % , + + , + o o o + $ $ $ +   p..X.X",
".X.Xb.% $ o + % $ O . u.b.@ o =.x.% % s @.z 8 % Q 2 9 W 3 g x g 0 n r - 3 : + , X.! o.] x 0 . $ + + o + % $ O o $ @ + o 8 E..X.X",
".X.X.Xx o o $ + + + . a X.o o 8 f @ O O o o o : - o @ o c ; o o : 2 o @ @ * & O o - - o o + . o o o o % + + o X o o o X ;..X.X.X",
".X.X.Xu.O X + o + o . o o o o + @ o o o % = = 3 % o o @ ; S v M b # O O o # 2 = & % + + o + . o o o . + @ + o o X O o O G..X.X.X",
".X.X.XY.g X o o + o o + O @ . X @ + o o $ $ O O O o o O - = + $ & # o o o & % + # o o o + o o + o O . o o o o o $ O o #.'..X.X.X",
".X.X.X.Xp.o   o . . + @ o o o . . . X O o o o o O o O O = o o @ O & # o # % o o o o   . . . + o o o .   X X   + o X % G..X.X.X.X",
".X.X.X.X.XX.  O o o X o o o X o + @ X . o o o o o % $ # O o o o o # % % % X o o o X o + @ X X X o o X o o O X X o X >..X.X.X.X.X",
".X.X.X.X.XM.0 o o X   X X o X + o X X . X X . . + o . o . X X X o # o X X   X X o . o o o X   . X X . + X o X     f ~..X.X.X.X.X",
".X.X.X.X.X.Xw.o X o     X X X o o o X X . o . . o . o . . . o . . o o X X . . X . X X X . o . . X X . o X o .   + M..X.X.X.X.X.X",
".X.X.X.X.X.X.X#.X o X O o o   . X o X X @ o o . . o o o . O o o   . X X o X O o o . . o o . . O o o . . o o . . e..X.X.X.X.X.X.X",
".X.X.X.X.X.X.XY.x   o o X o X   X X X o o X X X   . . . o o o . .     o . o o o X . . . . . o o X o .   . X   ;.]..X.X.X.X.X.X.X",
".X.X.X.X.X.X.X.XG.g   o o o X . o o X X o X o X . o o . . o o o o . o o X . X o X o . o o . . o X X . . o X +./..X.X.X.X.X.X.X.X",
".X.X.X.X.X.X.X.X.XD.e   o o X o o o X   X o o . o o o .   . o . . o o o X   o X o . o o . o   . o X . + X O.~..X.X.X.X.X.X.X.X.X",
".X.X.X.X.X.X.X.X.X.XD.j     o o X X X     . X X o o o o .     . o o o   o     . . X o . o .     . . . o *.^..X.X.X.X.X.X.X.X.X.X",
".X.X.X.X.X.X.X.X.X.X.XY.%.O   X X o X o O o o . . o o X X + @ o     X o X X O o @ . X X X X . + o o O 0.(..X.X.X.X.X.X.X.X.X.X.X",
".X.X.X.X.X.X.X.X.X.X.X.X.Xq.%   X o   o o X X X   . . . o o X o     . . . o o X X X . . X X o o X e x..X.X.X.X.X.X.X.X.X.X.X.X.X",
".X.X.X.X.X.X.X.X.X.X.X.X.X.Xm.x o .   o o X o X   o o . o o X o o   o o X X X o X X   o o . . + =.Y..X.X.X.X.X.X.X.X.X.X.X.X.X.X",
".X.X.X.X.X.X.X.X.X.X.X.X.X.X.X.Xp.g o   X o o . o o o .   X X X   O o o X   o X X . O o X @ k n..X.X.X.X.X.X.X.X.X.X.X.X.X.X.X.X",
".X.X.X.X.X.X.X.X.X.X.X.X.X.X.X.X.XY.e.g X       O X X o     .   o o X X o     .     X % X.f./..X.X.X.X.X.X.X.X.X.X.X.X.X.X.X.X.X",
".X.X.X.X.X.X.X.X.X.X.X.X.X.X.X.X.X.X.X.Xf.=.e o . . X X . o o o   X o X X . o X % i >.M..X.X.X.X.X.X.X.X.X.X.X.X.X.X.X.X.X.X.X.X",
".X.X.X.X.X.X.X.X.X.X.X.X.X.X.X.X.X.X.X.X.X.XY.f.>...a , # O o X     O O % g @.q.m.!..X.X.X.X.X.X.X.X.X.X.X.X.X.X.X.X.X.X.X.X.X.X",
".X.X.X.X.X.X.X.X.X.X.X.X.X.X.X.X.X.X.X.X.X.X.X.X.X.XY.D.n.p.p.p.p.i.d.M.G.Q..X.X.X.X.X.X.X.X.X.X.X.X.X.X.X.X.X.X.X.X.X.X.X.X.X.X"
};
