/* XPM */
static char *satc32[] = {
/* columns rows colors chars-per-pixel */
"32 32 106 2 ",
"   c #0E0F0F",
".  c #0E100F",
"X  c #0F1110",
"o  c #121313",
"O  c #191717",
"+  c #161817",
"@  c #1E1719",
"#  c #171918",
"$  c #1B1C1B",
"%  c #231C1D",
"&  c #2C1A1E",
"*  c #331B1E",
"=  c #1E201F",
"-  c #231F20",
";  c #2C1D23",
":  c #331D21",
">  c #3A1F22",
",  c #1F2120",
"<  c #232423",
"1  c #2C2224",
"2  c #262827",
"3  c #2B2628",
"4  c #272928",
"5  c #2B2D2C",
"6  c #312426",
"7  c #3D2225",
"8  c #32272B",
"9  c #3A232A",
"0  c #322C2E",
"q  c #3C2A2D",
"w  c #2E302F",
"e  c #332E30",
"r  c #3B2D33",
"t  c #2F3130",
"y  c #333433",
"u  c #3A3335",
"i  c #363937",
"p  c #3F3738",
"a  c #373938",
"s  c #3A3C3B",
"d  c #422425",
"f  c #482B2D",
"g  c #422E32",
"h  c #423337",
"j  c #4F3436",
"k  c #42353A",
"l  c #493438",
"z  c #433D3E",
"x  c #5B3C3F",
"c  c #3F403F",
"v  c #443D40",
"b  c #4B3C44",
"n  c #3E4140",
"m  c #424343",
"M  c #4A4243",
"N  c #464947",
"B  c #474948",
"V  c #4B4C4C",
"C  c #534345",
"Z  c #584043",
"A  c #544649",
"S  c #594748",
"D  c #53494C",
"F  c #4E514F",
"G  c #50504F",
"H  c #574F52",
"J  c #5A4E52",
"K  c #4F5150",
"L  c #545353",
"P  c #5C5454",
"I  c #575857",
"U  c #575A58",
"Y  c #5C5C5C",
"T  c #614E52",
"R  c #605355",
"E  c #635659",
"W  c #65585D",
"Q  c #6C585A",
"!  c #5E605F",
"~  c #5F6160",
"^  c #626463",
"/  c #6A6466",
"(  c #666967",
")  c #6A6867",
"_  c #676A69",
"`  c #6A6B6B",
"'  c #726567",
"]  c #72676A",
"[  c #6E716F",
"{  c #776E70",
"}  c #796E72",
"|  c #6F7170",
" . c #727473",
".. c #777A78",
"X. c #7A7C7B",
"o. c #837575",
"O. c #847877",
"+. c #86797C",
"@. c #828482",
"#. c #8B8485",
"$. c #8C8D8C",
"%. c #8F9090",
"&. c gray59",
"*. c #9C9C9C",
"=. c #A1A2A2",
"-. c None",
/* pixels */
"-.-.-.-.-.-.-.-.-.-.-.-.%. . . ._ ` ..&.-.-.-.-.-.-.-.-.-.-.-.-.",
"-.-.-.-.-.-.-.-.-.$.^ B m n y a y s a z V | *.-.-.-.-.-.-.-.-.-.",
"-.-.-.-.-.-.-.$.^ c a y a a a s y a y a i y m _ =.-.-.-.-.-.-.-.",
"-.-.-.-.-.-...m y y s a y y y s y i y s a t y y K @.-.-.-.-.-.-.",
"-.-.-.-.-.^ y y s y y t a a t y y s y y t a s t y a ..-.-.-.-.-.",
"-.-.-.-.^ y a y y t a i y y y a t y t a y t t y i y y | -.-.-.-.",
"-.-.-. .a w y y i t t y y y t y y y t y y y y t y w y a X.-.-.-.",
"-.-.@.s y 5 5 5 y t w 0 y y y y y y y t 5 t y 5 w 5 y 5 N *.-.-.",
"-.-.L 5 y B L N w 5 t y y r u y r y y y w 5 5 a V 5 5 5 t ^ -.-.",
"-...y L U m c m y w 0 y y t r r r y e r 0 y t c ` 5 t 5 t y %.-.",
"-.I B  .w 5 5 2 5 0 t 0 r z C t r r r y 0 0 5 a ` 4 5 5 V 5 ~ -.",
"-.s s $.X.X.@...m r s z r / [ y g v b e 0 z z a | s i 5 a 4 m -.",
"` 5 < 5 i a m  .$.z Y { V [ #.S Q K / ' J  .Y y ..^ @.B ( , t $.",
"U 5 2 < < 2 2 m $.D F | ] E Y a +.q b  .D } $.G _ 2 | B ( 2 2 | ",
"B s B < < = < Y Y ) R ' W F O.S o.L E S E P Y m ~ 2 _ m U , , ^ ",
"N y ^ B a a F L 5 q h g q 8 j q f p g 9 q h 5 5 4 , 4 < 2 , , ! ",
"m = < y s c i 1 6 9 < < 9 d * # > 7 9 < < 9 1 1 , = , $ , , $ Y ",
"N $ $ = < - % 1 < 6 d 9 < 3 d 7 d < 6 g A 1 = - $ = n $ $ $ = ! ",
"K = $ # c s a m u h % - > S q 5 b 6 > 0 D ; < c < 2 N $ = $ # _ ",
"Y = # $ y G n U s 8 8 8 g L r z S - * q J - 3 ^ s m K + # $ < X.",
"-.2 # # $ I n K B m M W L L T V S O & q J $ = V B n B 5 # O t -.",
"-.c # o o V B n V u s s h k C s j * * < V k w , $ = # # # o V -.",
"-.Y # # + $ < # - o $ % @ O * * & O O % % @ O o o o + o o = ..-.",
"-.-.y . o o o o o o + o O o % O % o O O o o o o o o o o o m -.-.",
"-.-.^ $ o X o X o o X o O o o X o O o X X o o X o o o X , X.-.-.",
"-.-.-.B O X o X X o o . o X X o X o X o o X o   o X X O ! -.-.-.",
"-.-.-.-.s o X X X X o X   X o o   o o o   X X o X   o V -.-.-.-.",
"-.-.-.-.-.s o X o   X o o o   X o o     o o o   X + V -.-.-.-.-.",
"-.-.-.-.-.-.V #   X o X . o o o   . X o o   X o < U -.-.-.-.-.-.",
"-.-.-.-.-.-.-.^ y O X X o X . o X o   o   X # a  .-.-.-.-.-.-.-.",
"-.-.-.-.-.-.-.-.-.U a , O X X X . X X O < n _ -.-.-.-.-.-.-.-.-.",
"-.-.-.-.-.-.-.-.-.-.-.-.U B n s a n V ^ -.-.-.-.-.-.-.-.-.-.-.-."
};
