/* XPM */
static char *satc16[] = {
/* columns rows colors chars-per-pixel */
"16 16 106 2 ",
"   c #010106",
".  c #030207",
"X  c #030307",
"o  c #030308",
"O  c #040308",
"+  c #040409",
"@  c #050409",
"#  c #050509",
"$  c #060509",
"%  c #05040A",
"&  c #05050A",
"*  c #06050A",
"=  c #06060A",
"-  c #07060A",
";  c #07070A",
":  c #06060B",
">  c #07060B",
",  c #07070B",
"<  c #08070B",
"1  c #08070C",
"2  c #09090B",
"3  c #09090C",
"4  c #0A090D",
"5  c #0B0B0D",
"6  c #0B0A0E",
"7  c #0C0C0F",
"8  c #0D0C10",
"9  c #0D0D10",
"0  c #0F0F10",
"q  c #0E0E12",
"w  c #0F0E12",
"e  c #0F0F12",
"r  c #0F0F13",
"t  c #100F13",
"y  c #111014",
"u  c #111114",
"i  c #111115",
"p  c #131217",
"a  c #141317",
"s  c #151418",
"d  c #151518",
"f  c #151519",
"g  c #16151A",
"h  c #17171B",
"j  c #191919",
"k  c #18181B",
"l  c #1A191D",
"z  c #1A1A1D",
"x  c #1B1A1E",
"c  c #1C1B1E",
"v  c #1D1D1F",
"b  c #202021",
"n  c #212125",
"m  c #222225",
"M  c #232226",
"N  c #242428",
"B  c #252529",
"V  c #28282B",
"C  c #29282B",
"Z  c #29292C",
"A  c #2A292C",
"S  c #2A292D",
"D  c #2A2A2C",
"F  c #2A2A2D",
"G  c #2C2C2F",
"H  c #2D2D31",
"J  c #2E2F30",
"K  c #333334",
"L  c #343535",
"P  c #343436",
"I  c #353538",
"U  c #353639",
"Y  c #363739",
"T  c #39393B",
"R  c #393A3B",
"E  c #3B3C3B",
"W  c #3A3A3C",
"Q  c #3A3B3C",
"!  c #3B3B3C",
"~  c #3D3D3E",
"^  c #3D3D3F",
"/  c #3E3E3F",
"(  c #424244",
")  c #424344",
"_  c #424245",
"`  c #494A4A",
"'  c #494A4B",
"]  c #4A4B4B",
"[  c #49494C",
"{  c #4A4B4C",
"}  c #4F5050",
"|  c #515254",
" . c #545557",
".. c #575859",
"X. c #5A5B5B",
"o. c #626363",
"O. c #6E6F6F",
"+. c #6F7070",
"@. c #707272",
"#. c #727475",
"$. c #797B7B",
"%. c #7B7C7C",
"&. c #7E807F",
"*. c #838483",
"=. c #8C8E8D",
"-. c None",
/* pixels */
"-.-.-.-.-.S l f f l B -.-.-.-.-.",
"-.-.-.S t O   X X X , w S -.-.-.",
"-.-.M , o O O , , ,     , M -.-.",
"-.S ,   o , , , , , , O   < S -.",
"-.w f Y 8 O j w , 3 M , j p w -.",
"V , |  .Y I o.X.[ Y ..B B p , B ",
"l   H @.$.&.=.*.O.%.=.+.#.[ w l ",
"f O Y _ T H / E L } T M Y G   a ",
"s O O , 2 v b w j 3 2 < O O o f ",
"l O , , p ! E ` L E c 2 < O   l ",
"S , O , p E ` _ ` _ S < , , , C ",
"-.t o , > p 7 3 7 < < ,   X w -.",
"-.S , , , O , , , , , , O , C -.",
"-.-.M , ,   O , , O     , M -.-.",
"-.-.-.S u , X X     , w S -.-.-.",
"-.-.-.-.-.C l f f l C -.-.-.-.-."
};
