/* XPM */
static char *satc32[] = {
/* columns rows colors chars-per-pixel */
"32 32 57 1 ",
"  c #030206",
". c #050509",
"X c #08070B",
"o c #0A090D",
"O c #0E0D11",
"+ c #100F12",
"@ c #121214",
"# c #16161A",
"$ c #1A1A1C",
"% c #1E1E22",
"& c #232326",
"* c #2A2A2D",
"= c #2E2E31",
"- c #2F3031",
"; c #323234",
": c #37373A",
"> c #38373A",
", c #3A3A3C",
"< c #3F3F40",
"1 c #3F4041",
"2 c #434445",
"3 c #454648",
"4 c #47484A",
"5 c #4B4B4D",
"6 c #4F504F",
"7 c #545455",
"8 c #565758",
"9 c #57595A",
"0 c #5A5B5C",
"q c #5E5F60",
"w c #5F6060",
"e c #616263",
"r c #666867",
"t c #666769",
"y c #67696A",
"u c #6C6E6D",
"i c #737474",
"p c #767878",
"a c #7A7C7C",
"s c #7E807F",
"d c #7F8180",
"f c #828483",
"g c #868886",
"h c #8A8C8B",
"j c #8E908F",
"k c #8F9190",
"l c #929493",
"z c #979998",
"x c #9A9D9C",
"c c #9DA09E",
"v c #9FA1A1",
"b c #A2A4A3",
"n c #ADB0AE",
"m c #AFB2B0",
"M c #B2B4B2",
"N c #CED1CE",
"B c None",
/* pixels */
"BBBBBBBBBBBB5:=***:5BBBBBBBBBBBB",
"BBBBBBBBB5*@X      .O*5BBBBBBBBB",
"BBBBBBB7&X   .. .  .  X&7BBBBBBB",
"BBBBBB,O .  .  . .. ..  O<BBBBBB",
"BBBBB=............... .  .=BBBBB",
"BBBB=. ......X...X......  .=BBBB",
"BBB,. . .....XXXXXX......  .,BBB",
"BB7+ .....XX.XXXXXX.X...... O7BB",
"BB& .....XXXoXXooXoXXX...OO  &BB",
"B5o..=ptOXXXO4@oooX.<5.X.0:  X5B",
"B*  %xqp%O%.$h@$$.%Oqq ..#O.. *B",
"B@  *v;O#aj%wnibz7k&q77%O0O.. @B",
"5X..X7bi9ig,Nxzukfx-vlm<2vO3# .5",
", ..XX2vhsMlx7fusOgvnjqxjbet.. >",
"=   ;xx2qi:-u68g-:b5d2$5%af@ . *",
"* . O;%.ooXX**O+O13o&OX..oo .. *",
"* .....oooOooO+++OoOoooooX.. . *",
"= ...XXXooO29@o@<@+oOoooXX.. . *",
":....Xoooo<95$,$&+$@ooXXXX .   :",
"5X.....Xo+w@@0ia6&uu$&.XX ..  o5",
"B@ .X.Xoo$9$qd8<wrs6r*XXX.... @B",
"B* . ..XXO9w;3:@8-@$*oXX...   *B",
"B5X. o..XXo+XXXOooooXXXX..X  o5B",
"BB&  ...X.XoXXXXooo.oXX .. . &BB",
"BB7O.....XXXXXXXXXXXX...... O7BB",
"BBB,X  ......XXX.XX....  . .,BBB",
"BBBB=.. ... .............  =BBBB",
"BBBBB=X . .X........ . . .-BBBBB",
"BBBBBB<O  .  .  .. .    O,BBBBBB",
"BBBBBBB7&o   .   .    X&7BBBBBBB",
"BBBBBBBBB5*@X      X@*5BBBBBBBBB",
"BBBBBBBBBBBB5,=**=:5BBBBBBBBBBBB"
};
