/* XPM */
static char *satc16[] = {
/* columns rows colors chars-per-pixel */
"16 16 164 2 ",
"   c #0F1110",
".  c #101110",
"X  c #101111",
"o  c #101211",
"O  c #111211",
"+  c #111312",
"@  c #121312",
"#  c #121313",
"$  c #131313",
"%  c #131514",
"&  c #141515",
"*  c #141615",
"=  c #151615",
"-  c #151716",
";  c #161817",
":  c #171818",
">  c #181A19",
",  c #191A19",
"<  c #191A1A",
"1  c #1B1A1A",
"2  c #1A1B1A",
"3  c #1C1819",
"4  c #1D191A",
"5  c #1C1A1A",
"6  c #1B1D1C",
"7  c #1C1D1D",
"8  c #20181A",
"9  c #271B1D",
"0  c #1F201F",
"q  c #1F2020",
"w  c #202121",
"e  c #252022",
"r  c #232524",
"t  c #242524",
"y  c #242625",
"u  c #262827",
"i  c #272928",
"p  c #292A2A",
"a  c #2B2C2B",
"s  c #2B2C2C",
"d  c #2C2E2D",
"f  c #2D2E2D",
"g  c #2D2E2E",
"h  c #2F2F2E",
"j  c #352122",
"k  c #302125",
"l  c #352224",
"z  c #302426",
"x  c #312427",
"c  c #342426",
"v  c #35272A",
"b  c #33282A",
"n  c #352A2D",
"m  c #302C2C",
"M  c #382A2C",
"N  c #392A2C",
"B  c #3D2D2F",
"V  c #2F302F",
"C  c #2F3030",
"Z  c #2F3130",
"A  c #303131",
"S  c #323031",
"D  c #303231",
"F  c #313231",
"G  c #323231",
"H  c #313232",
"J  c #313332",
"K  c #323333",
"L  c gray20",
"P  c #343032",
"I  c #353132",
"U  c #363133",
"Y  c #323433",
"T  c #333434",
"R  c #333534",
"E  c #343534",
"W  c #363434",
"Q  c #343634",
"!  c #343635",
"~  c #353636",
"^  c #353736",
"/  c #363736",
"(  c #383134",
")  c #3B3235",
"_  c #393435",
"`  c #3A3536",
"'  c #3B3537",
"]  c #363837",
"[  c #3F3438",
"{  c #3E3639",
"}  c #373838",
"|  c #373938",
" . c #383938",
".. c #3A3939",
"X. c #383A39",
"o. c #393A39",
"O. c #393B3A",
"+. c #3A3B3A",
"@. c #3A3C3B",
"#. c #3B3C3C",
"$. c #3B3D3C",
"%. c #3C3D3D",
"&. c #3C3E3D",
"*. c #3D3E3D",
"=. c #3D3F3E",
"-. c #3E3E3E",
";. c #45373A",
":. c #443839",
">. c #433E3F",
",. c #4A3C3F",
"<. c #3E403F",
"1. c #3F403F",
"2. c #3F4140",
"3. c #404241",
"4. c #414242",
"5. c #414342",
"6. c gray26",
"7. c #424342",
"8. c #454242",
"9. c #444645",
"0. c #454746",
"q. c #464746",
"w. c #484042",
"e. c #4B4346",
"r. c #4D4244",
"t. c #4D4344",
"y. c #4E4344",
"u. c #454846",
"i. c #464847",
"p. c #4F4648",
"a. c #474848",
"s. c #4F4849",
"d. c #4B4C4C",
"f. c #544445",
"g. c #544546",
"h. c #514748",
"j. c #4E504F",
"k. c #4F504F",
"l. c #5C4F51",
"z. c #4F5250",
"x. c #515252",
"c. c #525352",
"v. c #545655",
"b. c #555656",
"n. c #555756",
"m. c #555856",
"M. c #575958",
"N. c #585A59",
"B. c #5A5B5A",
"V. c #5F5B5C",
"C. c #5B5E5C",
"Z. c #5C5E5D",
"A. c #5E5F5E",
"S. c #615657",
"D. c #645D5E",
"F. c #616261",
"G. c #666062",
"H. c #676263",
"J. c #636463",
"K. c #666364",
"L. c #656666",
"P. c #686A69",
"I. c #6B6C6C",
"U. c None",
/* pixels */
"U.U.U.U.U.F.v.x.d.v.P.U.U.U.U.U.",
"U.U.U.F.9. .] ^ ^ ] | a.I.U.U.U.",
"U.U.v. .J ^ Y ^ ^ R R Y  .A.U.U.",
"U.B.^ J J J J J I J Z J J ^ L.U.",
"U.i.5.1.V J I ( ( J m  .2.s 5.U.",
"x.M.m.z. .) e.p.{ { ` &.j.R ^ A.",
"1.d ^ x.H.D.G.D.l.S.G.A.B.C.&.9.",
"5.&.s 5.s.s.y.f.f.,.r.8.R #.d &.",
"J p J m x k c j l v n e w t 7  .",
"J >  .5.` b ;.:.B N ) ^  .J > &.",
"#.: J i.&.>.w.r.N x ` d J u > d.",
"U.9 : 7 > 5 5 9 8 3 5 & @ @ t U.",
"U. .& @   @ @ @ $ @   @ @ & a.U.",
"U.U.Z %   @       @     &  .U.U.",
"U.U.U.| 7 @         $ q 5.U.U.U.",
"U.U.U.U.U.| p r r s &.U.U.U.U.U."
};
