/* XPM */
static char *swyft16[] = {
/* columns rows colors chars-per-pixel */
"16 16 69 1 ",
"  c #68646A",
". c #7A7378",
"X c #7F7778",
"o c #82797C",
"O c #827A7E",
"+ c #837B7E",
"@ c #807B81",
"# c #898385",
"$ c #86848B",
"% c #908781",
"& c #968D87",
"* c #938D8E",
"= c #8B8990",
"- c #928C91",
"; c #979191",
": c #959192",
"> c #979295",
", c #949097",
"< c #969197",
"1 c #989191",
"2 c #989295",
"3 c #9C9696",
"4 c #9A9498",
"5 c #98969D",
"6 c #9D979D",
"7 c #A29D9F",
"8 c #9D9BA0",
"9 c #A09CA1",
"0 c #A19FA4",
"q c #A7A3A5",
"w c #AAA2A6",
"e c #A9A6AB",
"r c #ABA7AB",
"t c #AAA7AC",
"y c #B1ABAB",
"u c #AFAFB5",
"i c #B2AEB2",
"p c #B2AFB3",
"a c #B0AFB5",
"s c #B6B1B3",
"d c #B2B0B4",
"f c #B0B0B6",
"g c #BBB6B6",
"h c #BCB8B6",
"j c #B6B5BB",
"k c #BBB7B9",
"l c #B9B9BE",
"z c #BEBCBE",
"x c #C0BEC2",
"c c #C4C2C7",
"v c #CDCAC7",
"b c #C5C5CA",
"n c #CAC7CF",
"m c #CFCBCB",
"M c #C9C8CD",
"N c #CAC9CC",
"B c #D3CFD0",
"V c #D1CDD2",
"C c #D2D1D6",
"Z c #D6D3D6",
"A c #D5D4D6",
"S c #DAD8D5",
"D c #D3D2DA",
"F c #D8D7DE",
"G c #DBD9D9",
"H c #DDDAD8",
"J c #DFDDDA",
"K c #D9D9DC",
"L c None",
/* pixels */
"LLLLLLLLLLLLLLLL",
"LLLLLLtsy3LLLLLL",
"LLLLL8eLL1oLLLLL",
"LLLLi0LLLLo-LLLL",
"LLLJmLLLLLLfNLLL",
"LLhSLHzxg&LLKKLL",
"L#*LLvLLLLLLLDnL",
"L<LLL7LLLHVLLLwL",
"LpLLLcALLL2LLLoL",
"LNCLLLLLLL$LL LL",
"LLZZLL%qpljL=LLL",
"LLLk9LL9tLLbfLLL",
"LLLL@.LLLL5uLLLL",
"LLLLLo1LL6<LLLLL",
"LLLLLL::<4LLLLLL",
"LLLLLLLLLLLLLLLL"
};
