/* XPM */
static char *swyft64[] = {
/* columns rows colors chars-per-pixel */
"64 64 96 2 ",
"   c #5E5A60",
".  c #625E64",
"X  c #676267",
"o  c #686467",
"O  c #66636A",
"+  c #6A656B",
"@  c #6B686F",
"#  c #716A6E",
"$  c #6D6A71",
"%  c #736D73",
"&  c #786F72",
"*  c #767076",
"=  c #7B7275",
"-  c #757279",
";  c #7B747A",
":  c #7D797E",
">  c #80777A",
",  c #837A7D",
"<  c #9B907F",
"1  c #A1916F",
"2  c #A39476",
"3  c #7D7A83",
"4  c #847E82",
"5  c #887F80",
"6  c #827F88",
"7  c #878183",
"8  c #8B8485",
"9  c #86858C",
"0  c #8B858B",
"q  c #8E888B",
"w  c #908788",
"e  c #938D8D",
"r  c #9D9587",
"t  c #94908F",
"y  c #8C8A92",
"u  c #928E93",
"i  c #969193",
"p  c #9B9494",
"a  c #9C9897",
"s  c #95939A",
"d  c #9A959B",
"f  c #9D999D",
"g  c #A09799",
"h  c #A39C9D",
"j  c #A5A09F",
"k  c #9E9BA1",
"l  c #A19EA3",
"z  c #A4A1A5",
"x  c #AAA4A5",
"c  c #ADA9A7",
"v  c #A5A4A9",
"b  c #A9A6AB",
"n  c #ACA9AC",
"m  c #B1A7AD",
"M  c #B2ADAD",
"N  c #B5B0AD",
"B  c #AEACB1",
"V  c #B2AEB2",
"C  c #B5B1B4",
"Z  c #B9B4B5",
"A  c #B6B4BA",
"S  c #BAB6BA",
"D  c #BBB9BE",
"F  c #C1BCBC",
"G  c #C3C0BD",
"H  c #DCD2B5",
"J  c #BDBCC1",
"K  c #C2BFC3",
"L  c #C4C2C4",
"P  c #C9C5C5",
"I  c #CCC9C6",
"U  c #C5C5CA",
"Y  c #CAC7CC",
"T  c #C7C8CC",
"R  c #CBC9CC",
"E  c #D2CECE",
"W  c #DBD4C3",
"Q  c #D3D0CE",
"!  c #D9D5CF",
"~  c #CDCDD2",
"^  c #D1CED3",
"/  c #CFD0D4",
"(  c #D4D2D4",
")  c #D9D5D5",
"_  c #DCD9D6",
"`  c #D5D4DA",
"'  c #D9D6DD",
"]  c #DBDADC",
"[  c #E1DEDB",
"{  c #E3E2DE",
"}  c #DDDCE2",
"|  c #E0DFE4",
" . c #E3E3E3",
".. c #E8E7E3",
"X. c #EAE9E5",
"o. c None",
/* pixels */
"o.o.o.o.o.o.o.o.o.o.o.o.o.o.o.o.o.o.o.o.o.o.o.o.o.o.o.o.o.o.o.o.o.o.o.o.o.o.o.o.o.o.o.o.o.o.o.o.o.o.o.o.o.o.o.o.o.o.o.o.o.o.o.o.",
"o.o.o.o.o.o.o.o.o.o.o.o.o.o.o.o.o.o.o.o.o.o.o.o.o.o.o.o.o.o.o.o.o.o.o.o.o.o.o.o.o.o.o.o.o.o.o.o.o.o.o.o.o.o.o.o.o.o.o.o.o.o.o.o.",
"o.o.o.o.o.o.o.o.o.o.o.o.o.o.o.o.o.o.o.o.o.o.o.o.o.o.o.o.o.o.M M M M c o.o.o.o.o.o.o.o.o.o.o.o.o.o.o.o.o.o.o.o.o.o.o.o.o.o.o.o.o.",
"o.o.o.o.o.o.o.o.o.o.o.o.o.o.o.o.o.o.o.o.o.o.o.o.o.o.o.o.M M Z Z Z M c x h o.o.o.o.o.o.o.o.o.o.o.o.o.o.o.o.o.o.o.o.o.o.o.o.o.o.o.",
"o.o.o.o.o.o.o.o.o.o.o.o.o.o.o.o.o.o.o.o.o.o.o.o.o.o.o.B V C C Z Z M c h h a o.o.o.o.o.o.o.o.o.o.o.o.o.o.o.o.o.o.o.o.o.o.o.o.o.o.",
"o.o.o.o.o.o.o.o.o.o.o.o.o.o.o.o.o.o.o.o.o.o.o.o.o.o.n n M V Z Z Z M M x h a e o.o.o.o.o.o.o.o.o.o.o.o.o.o.o.o.o.o.o.o.o.o.o.o.o.",
"o.o.o.o.o.o.o.o.o.o.o.o.o.o.o.o.o.o.o.o.o.o.o.o.o.v b n C C S Z Z N M x h a e e o.o.o.o.o.o.o.o.o.o.o.o.o.o.o.o.o.o.o.o.o.o.o.o.",
"o.o.o.o.o.o.o.o.o.o.o.o.o.o.o.o.o.o.o.o.o.o.o.o.z v b B C S Z Z Z Z M c x a t 8 8 o.o.o.o.o.o.o.o.o.o.o.o.o.o.o.o.o.o.o.o.o.o.o.",
"o.o.o.o.o.o.o.o.o.o.o.o.o.o.o.o.o.o.o.o.o.o.o.k l v B B C S o.o.o.o.N M x g t 8 , > o.o.o.o.o.o.o.o.o.o.o.o.o.o.o.o.o.o.o.o.o.o.",
"o.o.o.o.o.o.o.o.o.o.o.o.o.o.o.o.o.o.o.o.o.o.f k z v n V C o.o.o.o.o.o.c h g t e 8 > ; o.o.o.o.o.o.o.o.o.o.o.o.o.o.o.o.o.o.o.o.o.",
"o.o.o.o.o.o.o.o.o.o.o.o.o.o.o.o.o.o.o.o.o.d f k z v n V o.o.o.o.o.o.o.o.h h t 8 , > = = o.o.o.o.o.o.o.o.o.o.o.o.o.o.o.o.o.o.o.o.",
"o.o.o.o.o.o.o.o.o.o.o.o.o.o.o.o.o.o.o.o.d d k l v B B o.o.o.o.o.o.o.o.o.o.g p w 5 ; & & = o.o.o.o.o.o.o.o.o.o.o.o.o.o.o.o.o.o.o.",
"o.o.o.o.o.o.o.o.o.o.o.o.o.o.o.o.o.o.o.f s k k l z b o.o.o.o.o.o.o.o.o.o.o.o.i w 5 > = & = 4 o.o.o.o.o.o.o.o.o.o.o.o.o.o.o.o.o.o.",
"o.o.o.o.o.o.o.o.o.o.o.o.o.o.o.o.o.o.b z k k l l z o.o.o.o.o.o.o.o.o.o.o.o.o.o.w , > > , 5 6 e o.o.o.o.o.o.o.o.o.o.o.o.o.o.o.o.o.",
"o.o.o.o.o.o.o.o.o.o.o.o.o.o.o.o.o.S B b k k l z o.o.o.o.o.o.o.o.o.o.o.o.o.o.o.o.4 > > , w u d l o.o.o.o.o.o.o.o.o.o.o.o.o.o.o.o.",
"o.o.o.o.o.o.o.o.o.o.o.o.o.o.o.o.P G Z B b v z o.o.o.o.o.o.o.o.o.o.o.o.o.o.o.o.o.o.> 5 8 y d l l B o.o.o.o.o.o.o.o.o.o.o.o.o.o.o.",
"o.o.o.o.o.o.o.o.o.o.o.o.o.o.o.Q Q I K F M b o.o.o.o.o.o.o.o.o.o.o.o.o.o.o.o.o.o.o.o.8 u d k b V S D o.o.o.o.o.o.o.o.o.o.o.o.o.o.",
"o.o.o.o.o.o.o.o.o.o.o.o.o.o.) ) ( E I K Z o.o.o.o.o.o.o.o.o.o.o.o.o.o.o.o.o.o.o.o.o.o.d z B V A J T T o.o.o.o.o.o.o.o.o.o.o.o.o.",
"o.o.o.o.o.o.o.o.o.o.o.o.o.[ [ _ _ ) E R o.o.o.o.o.o.o.o.o.o.o.o.o.o.o.o.o.o.o.o.o.o.o.o.B A J J T R ~ ( o.o.o.o.o.o.o.o.o.o.o.o.",
"o.o.o.o.o.o.o.o.o.o.o.o.{ { { { [ _ ) Q o.o.o.o.V v z v B A L R E P Z h e 5 , 5 u o.o.o.o.D T T / ( ` ) } o.o.o.o.o.o.o.o.o.o.o.",
"o.o.o.o.o.o.o.o.o.o.o.{ ..{ { {  .[ [ o.o.o.o.P S n v b B A L E E K N h e , 8 i 2 o.o.o.o.o.~ ~ ) ] ] ] ] } o.o.o.o.o.o.o.o.o.o.",
"o.o.o.o.o.o.o.o.o.o.Q _ { { ....{ { o.o.o.o.) ( I S n n V S U R Q P F h e 8 e r o.o.o.o.o.o.o.} ] ] ] ] } ` } o.o.o.o.o.o.o.o.o.",
"o.o.o.o.o.o.o.o.o.N G I Q _ { X.X.o.o.o.o.{ [ ) Q U A V A J L ^ ) G M g e e p o.o.o.o.o.o.o.o.o.} } ] } ` ` ` ` o.o.o.o.o.o.o.o.",
"o.o.o.o.o.o.o.o.p j c N G I ( { o.o.o.o.{ { { [ _ ( L A V D U ( ! P N h p a o.o.o.o.o.o.o.o.o.o.o.} ] ] } } ` ` ` o.o.o.o.o.o.o.",
"o.o.o.o.o.o.o.8 w e p j c N G o.o.o.o.o.[ { X.X.{ [ E D S J T ( ) P Z h g o.o.o.o.o.o.o.o.o.o.o.o.o.} | ' ' ` ` ` ` o.o.o.o.o.o.",
"o.o.o.o.o.o.4 , 7 8 8 e i j o.o.o.o.o.o.I _ { X...o.o.o.o.o.o.o.o.o.o.o.o.o.o.o.o.o.o.o.o.o.o.o.o.o.o.| } ' ' ` ` / ` o.o.o.o.o.",
"o.o.o.o.o.4 4 5 8 8 8 8 w o.o.o.o.o.o.o.M G ) { X.o.o.o.o.o.o.o.o.o.o.o.o.o.o.o.o.o.o.o.o.o.o.o.o.o.o.o.' ` ` ~ ~ ~ ~ T o.o.o.o.",
"o.o.o.o.7 8 0 0 q e q 8 o.o.o.o.o.o.o.e p j Z I o.o.o.o.o.o.o.o.o.o.o.o.o.) |  . .o.o.o.o.o.o.o.o.o.o.o.o./ ~ Y U K J J J o.o.o.",
"o.o.o.q 0 y w u e e t o.o.o.o.o.o.o.o.8 e e a c o.o.o.o.o.o.o.o.o.o.o.o.W  . .} | | o.o.o.o.o.o.o.o.o.o.o.o.P K K Z Z V B o.o.o.",
"o.o.o.u u u u u i t o.o.o.o.o.o.o.o.o.e e e i a o.o.o.o.o.o.o.o.o.o.o.o. . . .| | | } o.o.o.o.o.o.o.o.o.o.o.o.Z m m m m l o.o.o.",
"o.o.d s d k d d s o.o.o.o.o.o.o.o.o.o.o.p p g l l o.o.o.o.o.o.o.o.o.o. . .| } } } ^ ^ Y o.o.o.o.o.o.o.o.o.o.o.o.l l g g p o.o.o.",
"o.o.k k k k k k o.o.o.o.o.o.o.o.o.o.o.o.l l b n M o.o.o.o.o.o.o.o.o.[ } } ' ` ^ ^ K K J o.o.o.o.o.o.o.o.o.o.o.o.p p e u w o.o.o.",
"o.o.k k v l v k o.o.o.o.o.o.o.o.o.o.o.o.B B A D J L T ~ ( ] o.o.o.o.o.o.o.o.P D Z N M j o.o.o.o.o.o.o.o.o.o.o.o.w w < 5 , o.o.o.",
"o.o.B B B B B v o.o.o.o.o.o.o.o.o.o.o.o.J J L T ~ ( ) ] }  .o.o.o.o.o.o.o.o.o.x z a p p t o.o.o.o.o.o.o.o.o.o.o., , > , > o.o.o.",
"o.o.B B B J J A o.o.o.o.o.o.o.o.o.o.o.o.o.~ ( ' ] } { |  .H o.o.o.o.o.o.o.o.o.o.q 9 3 7 , o.o.o.o.o.o.o.o.o.o.= = = & & & o.o.o.",
"o.o.o.J B J J J L o.o.o.o.o.o.o.o.o.o.o.o.o.] | | } } | W o.o.o.o.o.o.o.o.o.o.o.4 : - - & o.o.o.o.o.o.o.o.o.% # # # # & o.o.o.o.",
"o.o.o.J J K U Y ~ ~ o.o.o.o.o.o.o.o.o.o.o.o.o.| } } ] ! o.o.o.o.o.o.o.o.o.o.o.o.6 3 - $ @ o.o.o.o.o.o.o.o.+ O O X o + o.o.o.o.o.",
"o.o.o.o.U T Y ~ ^ ` ( o.o.o.o.o.o.o.o.o.o.o.o.o.[ _ ) o.o.o.o.o.o.o.o.o.o.o.o.o.y 6 ; $ @ o.o.o.o.o.o.o.+ O O O . . o.o.o.o.o.o.",
"o.o.o.o.o.~ ~ ^ ( ` ` ` o.o.o.o.o.o.o.o.o.o.o.o.o.o.o.o.o.o.o.o.o.o.o.o.o.o.o.o.k 9 3 ; * o.o.o.o.o.o.$ + O O     o.o.o.o.o.o.o.",
"o.o.o.o.o.o.( ~ ` ` ` ` ' o.o.o.o.o.o.o.o.o.o.o.o.o.o.o.o.o.o.o.o.o.o.o.o.o.o.L b k y 3 ; o.o.o.o.o.; % $ + O   o.o.o.o.o.o.o.o.",
"o.o.o.o.o.o.o.` ` ) ` ` ' ' o.o.o.o.o.o.o.o.o.o.o.o.o.d u x S S S D D V A T } / J v s y o.o.o.o.o.3 3 ; % $ + o.o.o.o.o.o.o.o.o.",
"o.o.o.o.o.o.o.o.( ` ` ) ) ) ) o.o.o.o.o.o.o.o.o.o.o.p e u x S C C S D B v J ~ ` / J v s o.o.o.o.y 9 3 3 - $ o.o.o.o.o.o.o.o.o.o.",
"o.o.o.o.o.o.o.o.o.) ( ) ! Q ! E o.o.o.o.o.o.o.o.o.< 0 7 u c C M V S S B v v K / ` U A o.o.o.o.v k y 9 3 3 o.o.o.o.o.o.o.o.o.o.o.",
"o.o.o.o.o.o.o.o.o.o.Q ) E E Y P L o.o.o.o.o.o.o.2 0 3 4 i c M n b V V n v k B U / / U o.o.o.J A v k s 9 o.o.o.o.o.o.o.o.o.o.o.o.",
"o.o.o.o.o.o.o.o.o.o.o.E E P K K D A o.o.o.o.o.o.0 4 - > p x c x z M V M l k k A U / o.o.o.( T J V v k o.o.o.o.o.o.o.o.o.o.o.o.o.",
"o.o.o.o.o.o.o.o.o.o.o.o.P F Z C V b l o.o.o.o.8 4 ; & 4 p b x z l b n b k k d v o.o.o.o./ ` / U J A o.o.o.o.o.o.o.o.o.o.o.o.o.o.",
"o.o.o.o.o.o.o.o.o.o.o.o.o.Z V n z l s u o.o.o.o.o.o.o.o.o.o.o.o.o.o.o.o.o.o.o.o.o.o.o.J T / / R T o.o.o.o.o.o.o.o.o.o.o.o.o.o.o.",
"o.o.o.o.o.o.o.o.o.o.o.o.o.o.v l d s u 8 4 o.o.o.o.o.o.o.o.o.o.o.o.o.o.o.o.o.o.o.o.o.v B J T / / o.o.o.o.o.o.o.o.o.o.o.o.o.o.o.o.",
"o.o.o.o.o.o.o.o.o.o.o.o.o.o.o.k y 0 8 4 ; - o.o.o.o.o.o.o.o.o.o.o.o.o.o.o.o.o.o.o.s k v V J T o.o.o.o.o.o.o.o.o.o.o.o.o.o.o.o.o.",
"o.o.o.o.o.o.o.o.o.o.o.o.o.o.o.o.0 4 : ; * - * o.o.o.o.o.o.o.o.o.o.o.o.o.o.o.o.o.k y s k v V o.o.o.o.o.o.o.o.o.o.o.o.o.o.o.o.o.o.",
"o.o.o.o.o.o.o.o.o.o.o.o.o.o.o.o.o.3 & % # % ; 4 o.o.o.o.o.o.o.o.o.o.o.o.o.o.o.l s s s s k o.o.o.o.o.o.o.o.o.o.o.o.o.o.o.o.o.o.o.",
"o.o.o.o.o.o.o.o.o.o.o.o.o.o.o.o.o.o.% % # # = 4 0 o.o.o.o.o.o.o.o.o.o.o.o.o.l d s s y y o.o.o.o.o.o.o.o.o.o.o.o.o.o.o.o.o.o.o.o.",
"o.o.o.o.o.o.o.o.o.o.o.o.o.o.o.o.o.o.o.+ % * > 8 e p o.o.o.o.o.o.o.o.o.o.o.l d d s u y o.o.o.o.o.o.o.o.o.o.o.o.o.o.o.o.o.o.o.o.o.",
"o.o.o.o.o.o.o.o.o.o.o.o.o.o.o.o.o.o.o.o.+ & > w i p h o.o.o.o.o.o.o.o.o.l l l d s y y o.o.o.o.o.o.o.o.o.o.o.o.o.o.o.o.o.o.o.o.o.",
"o.o.o.o.o.o.o.o.o.o.o.o.o.o.o.o.o.o.o.o.o.= , 0 i a g a o.o.o.o.o.o.o.f l l g d s u o.o.o.o.o.o.o.o.o.o.o.o.o.o.o.o.o.o.o.o.o.o.",
"o.o.o.o.o.o.o.o.o.o.o.o.o.o.o.o.o.o.o.o.o.o.5 8 e p p i i o.o.o.o.o.p f g d k s s o.o.o.o.o.o.o.o.o.o.o.o.o.o.o.o.o.o.o.o.o.o.o.",
"o.o.o.o.o.o.o.o.o.o.o.o.o.o.o.o.o.o.o.o.o.o.o.e t i p t i i o.o.o.i p p d d p s o.o.o.o.o.o.o.o.o.o.o.o.o.o.o.o.o.o.o.o.o.o.o.o.",
"o.o.o.o.o.o.o.o.o.o.o.o.o.o.o.o.o.o.o.o.o.o.o.o.r i i p i s i i i p s d p d d o.o.o.o.o.o.o.o.o.o.o.o.o.o.o.o.o.o.o.o.o.o.o.o.o.",
"o.o.o.o.o.o.o.o.o.o.o.o.o.o.o.o.o.o.o.o.o.o.o.o.o.i t i t i i i i i s i p i o.o.o.o.o.o.o.o.o.o.o.o.o.o.o.o.o.o.o.o.o.o.o.o.o.o.",
"o.o.o.o.o.o.o.o.o.o.o.o.o.o.o.o.o.o.o.o.o.o.o.o.o.o.p t i t i i i i i i i o.o.o.o.o.o.o.o.o.o.o.o.o.o.o.o.o.o.o.o.o.o.o.o.o.o.o.",
"o.o.o.o.o.o.o.o.o.o.o.o.o.o.o.o.o.o.o.o.o.o.o.o.o.o.o.t e i i q i i i o.o.o.o.o.o.o.o.o.o.o.o.o.o.o.o.o.o.o.o.o.o.o.o.o.o.o.o.o.",
"o.o.o.o.o.o.o.o.o.o.o.o.o.o.o.o.o.o.o.o.o.o.o.o.o.o.o.o.o.o.e i u o.o.o.o.o.o.o.o.o.o.o.o.o.o.o.o.o.o.o.o.o.o.o.o.o.o.o.o.o.o.o.",
"o.o.o.o.o.o.o.o.o.o.o.o.o.o.o.o.o.o.o.o.o.o.o.o.o.o.o.o.o.o.o.o.o.o.o.o.o.o.o.o.o.o.o.o.o.o.o.o.o.o.o.o.o.o.o.o.o.o.o.o.o.o.o.o.",
"o.o.o.o.o.o.o.o.o.o.o.o.o.o.o.o.o.o.o.o.o.o.o.o.o.o.o.o.o.o.o.o.o.o.o.o.o.o.o.o.o.o.o.o.o.o.o.o.o.o.o.o.o.o.o.o.o.o.o.o.o.o.o.o."
};
