/* XPM */
static char *swyft32[] = {
/* columns rows colors chars-per-pixel */
"32 32 72 1 ",
"  c #635F66",
". c #666166",
"X c #6A666D",
"o c #6C686F",
"O c #736D72",
"+ c #737077",
"@ c #797075",
"# c #7B7379",
"$ c #7F797D",
"% c #847B7D",
"& c #968A7A",
"* c #7B7881",
"= c #837D82",
"- c #868184",
"; c #8B8385",
": c #86848C",
"> c #8A868C",
", c #8E8888",
"< c #928A87",
"1 c #938B8C",
"2 c #9A918C",
"3 c #8C8B93",
"4 c #928D92",
"5 c #969192",
"6 c #999394",
"7 c #95929A",
"8 c #9B969C",
"9 c #9E999D",
"0 c #A19B9B",
"q c #9C9AA1",
"w c #A19EA3",
"e c #A3A1A6",
"r c #ABA5A5",
"t c #A6A4AA",
"y c #ABA6A9",
"u c #ADA9AC",
"i c #B2ACAD",
"p c #AEADB2",
"a c #B1AEB2",
"s c #B4B1B5",
"d c #B9B3B4",
"f c #BCB8B5",
"g c #B6B4BA",
"h c #B9B6B8",
"j c #BCB9BC",
"k c #C2BDBF",
"l c #D8CFB8",
"z c #BFBDC2",
"x c #C3BFC0",
"c c #C5C1C6",
"v c #C9C5C5",
"b c #C5C4CA",
"n c #C9C7CB",
"m c #CDCACB",
"M c #D2CFCE",
"N c #D7D1C5",
"B c #D4D0CF",
"V c #DDD9CD",
"C c #CDCDD2",
"Z c #D1CED3",
"A c #D3D3D5",
"S c #D9D5D3",
"D c #DBD9D5",
"F c #D5D4DA",
"G c #D8D6DB",
"H c #DCDBDD",
"J c #E0DDDA",
"K c #E3E1DE",
"L c #DEDDE1",
"P c #E0DFE3",
"I c #E5E3E3",
"U c None",
/* pixels */
"UUUUUUUUUUUUUUUUUUUUUUUUUUUUUUUU",
"UUUUUUUUUUUUUUiairUUUUUUUUUUUUUU",
"UUUUUUUUUUUUUusdir0UUUUUUUUUUUUU",
"UUUUUUUUUUUUeushdi01UUUUUUUUUUUU",
"UUUUUUUUUUUqepsUUi01=UUUUUUUUUUU",
"UUUUUUUUUU89tpUUUU01%@UUUUUUUUUU",
"UUUUUUUUUe9wtUUUUUU<%#=UUUUUUUUU",
"UUUUUUUUkaewUUUUUUUU%%4wUUUUUUUU",
"UUUUUUUSMciUUUUUUUUUU4wpxUUUUUUU",
"UUUUUUKJDMUUUegbvy,=UUgcmAUUUUUU",
"UUUUUSKKKUUBhugmMr<<UUUAHGGUUUUU",
"UUUUrfBHUUKHBhgmMr2UUUUULHLFUUUU",
"UUU-,6rUUUDIKUUUUUUUUUUUULLFFUUU",
"UU--;,UUUUrMUUUUUUUPUUUUUUFCnbUU",
"U4341UUUUU10UUUUUUHIPUUUUUUxsayU",
"U899UUUUUU0eUUUUUVLGZcUUUUUU064U",
"UettUUUUUUgznAHUUUUju0UUUUUU;%%U",
"UggzUUUUUUUHLIlUUUUU:*UUUUUOOOUU",
"UUcnCUUUUUUUHNUUUUUU*+oUUUX..UUU",
"UUUZFGUUUUUUUUUUUUUUq-UUU+o UUUU",
"UUUUAFGUUUUUU29dhsgAz7UU:*OUUUUU",
"UUUUUSMMUUUU&-0iaatcCUUsq3UUUUUU",
"UUUUUUvkaUUU=$0ryuqtUUAnsUUUUUUU",
"UUUUUUUtq4UUUUUUUUUUUabCUUUUUUUU",
"UUUUUUUU>=#UUUUUUUUU7qaUUUUUUUUU",
"UUUUUUUUUOO$UUUUUUUq77UUUUUUUUUU",
"UUUUUUUUUUO-5UUUUUw973UUUUUUUUUU",
"UUUUUUUUUUU-66UUU9984UUUUUUUUUUU",
"UUUUUUUUUUUU55555886UUUUUUUUUUUU",
"UUUUUUUUUUUUU555556UUUUUUUUUUUUU",
"UUUUUUUUUUUUUU155UUUUUUUUUUUUUUU",
"UUUUUUUUUUUUUUUUUUUUUUUUUUUUUUUU"
};
